<?xml version="1.0" encoding="utf-8"?>
<!-- Generator: Adobe Illustrator 15.0.0, SVG Export Plug-In . SVG Version: 6.00 Build 0)  -->
<!DOCTYPE svg PUBLIC "-//W3C//DTD SVG 1.1//EN" "http://www.w3.org/Graphics/SVG/1.1/DTD/svg11.dtd">
<svg version="1.1" id="Ebene_1" xmlns="http://www.w3.org/2000/svg" xmlns:xlink="http://www.w3.org/1999/xlink" x="0px" y="0px"
	 width="600px" height="200px" viewBox="0 0 600 200" enable-background="new 0 0 600 200" xml:space="preserve">
<g id="layer1" transform="translate(-2190.77, -43.2689)">
	<g id="g3609" transform="translate(35.4331, 35.3499)">
		<path id="path2946" fill="#FFFFFF" d="M2226.736,137.728c0-1.897-1.534-3.44-3.434-3.44h-54.027c-1.899,0-3.438,1.543-3.438,3.44
			v43.328c0,1.895,1.538,3.438,3.438,3.438h19.706h34.321c1.899,0,3.434-1.543,3.434-3.438v-11.564c0-0.932-0.374-1.773-0.977-2.389
			c0.603-0.623,0.977-1.457,0.977-2.389v-10.67c0-0.924-0.374-1.758-0.967-2.377c0.593-0.619,0.967-1.452,0.967-2.381V137.728z"/>
		<path id="path2950" fill="#FFFFFF" d="M2295.854,135.747c-0.631-0.988-1.719-1.586-2.896-1.586h-20.66
			c-1.388,0-2.639,0.83-3.176,2.115l-8.083,19.345l-7.993-19.255c-0.537-1.285-1.788-2.123-3.175-2.123h-20.875
			c-1.173,0-2.264,0.598-2.892,1.59c-0.636,0.984-0.718,2.227-0.224,3.291l20.084,43.371c0.563,1.211,1.779,1.994,3.115,1.994
			h23.827c1.345,0,2.561-0.783,3.124-1.998l20.05-43.453C2296.572,137.978,2296.486,136.732,2295.854,135.747z"/>
		<path id="path2954" fill="#FFFFFF" d="M2356.215,179.485l-22.168-43.447c-0.589-1.151-1.771-1.879-3.063-1.879h-23.827
			c-1.293,0-2.471,0.723-3.063,1.869l-22.323,43.518c-0.546,1.064-0.503,2.342,0.12,3.359c0.627,1.022,1.736,1.646,2.938,1.646
			h20.531c1.311,0,2.501-0.738,3.081-1.912l2.123-4.279h17.012l2.08,4.211c0.576,1.174,1.775,1.916,3.081,1.916h20.416
			c1.199,0,2.307-0.623,2.936-1.646C2356.709,181.823,2356.761,180.552,2356.215,179.485z"/>
		<path id="path2958" fill="#FFFFFF" d="M2432.828,179.485l-22.178-43.447c-0.589-1.151-1.771-1.879-3.064-1.879h-23.832
			c-1.293,0-2.471,0.723-3.06,1.869l-22.323,43.518c-0.55,1.064-0.499,2.342,0.12,3.359c0.632,1.022,1.736,1.646,2.938,1.646h20.527
			c1.306,0,2.497-0.738,3.081-1.908l2.127-4.283h17.017l2.08,4.211c0.58,1.174,1.77,1.916,3.081,1.916h20.424
			c1.194,0,2.307-0.623,2.935-1.646C2433.326,181.823,2433.378,180.552,2432.828,179.485z"/>
		<path id="path2962" fill="#FFFFFF" d="M2456.769,134.245h-20.146c-1.899,0-3.438,1.533-3.438,3.438v43.365
			c0,1.9,1.538,3.438,3.438,3.438h20.146c1.898,0,3.438-1.537,3.438-3.438v-43.365
			C2460.205,135.778,2458.667,134.245,2456.769,134.245z"/>
		<path id="path2966" fill="#FFFFFF" d="M2524.412,161.747c1.985-2.59,2.021-5.826,2.012-6.221c0,0.055,0-7.43,0-7.43
			c0-10.025-8.638-13.421-13.205-13.82c-0.297-0.014-46.627-0.029-46.627-0.029c-0.911-0.006-1.788,0.359-2.433,1.001
			c-0.646,0.646-1.01,1.521-1.01,2.433v43.365c0,1.902,1.543,3.441,3.438,3.441h20.162c1.903,0,3.438-1.539,3.438-3.441V169.53
			h9.243v11.516c0,1.902,1.538,3.441,3.434,3.441h20.148c1.896,0,3.438-1.539,3.438-3.441v-12.16
			C2526.449,165.724,2525.594,163.424,2524.412,161.747 M2499.43,168.937c0,0.004,0,0.019,0-0.051V168.937L2499.43,168.937z"/>
		<path id="path3018" fill="#FFFFFF" d="M2741.202,33.877c-0.646-0.907-1.693-1.448-2.803-1.448h-9.475
			c-1.466,0-2.771,0.928-3.249,2.308l-50.771,145.722c-0.369,1.048-0.205,2.217,0.442,3.123c0.646,0.905,1.688,1.448,2.802,1.448
			h9.476c1.466,0,2.768-0.93,3.243-2.309l50.774-145.721C2742.01,35.943,2741.842,34.783,2741.202,33.877z"/>
		<path id="path3022" fill="#FFFFFF" d="M2726.502,33.894c-0.646-0.907-1.688-1.448-2.797-1.448h-69.806
			c-1.059,0-2.06,0.486-2.707,1.324l-114.019,145.719c-0.812,1.037-0.958,2.441-0.382,3.627c0.575,1.178,1.778,1.93,3.089,1.93
			h3.111h129.942c1.466,0,2.771-0.924,3.248-2.307l50.767-145.722C2727.31,35.961,2727.146,34.8,2726.502,33.894z"/>
		<path id="path3026" fill="#038341" d="M2223.417,149.452V137.89h-54.027v43.332h19.706h34.321v-11.572h-34.321v-4.771h34.321
			v-10.674h-34.321v-4.753H2223.417L2223.417,149.452z"/>
		<path id="path3030" fill="#038341" d="M2229.112,137.845h20.871l11.164,26.879l11.263-26.965h20.665l-20.046,43.453h-23.827
			L2229.112,137.845z"/>
		<path id="path3034" fill="#038341" d="M2332.85,181.21h20.42l-22.173-43.447h-23.827l-22.328,43.518h20.531l3.077-6.192h21.279
			L2332.85,181.21 M2313.973,164.148l5.242-10.588l5.221,10.588H2313.973z"/>
		<path id="path3038" fill="#038341" d="M2409.458,181.21h20.428l-22.182-43.447h-23.835l-22.323,43.518h20.531l3.072-6.192h21.288
			L2409.458,181.21 M2390.572,164.148l5.247-10.588l5.221,10.588H2390.572z"/>
		<path id="path3042" fill="#038341" d="M2436.738,137.845h20.145v43.367h-20.145V137.845z"/>
		<path id="path3046" fill="#038341" d="M2518.06,161.538c5.14,0,5.041-5.793,5.041-5.793v-7.484
			c0-9.523-10.063-10.395-10.063-10.395l-46.335-0.021v43.365h20.161v-14.953h13.377c2.793,0,2.737,2.793,2.737,2.793v12.16h20.148
			v-12.16C2523.117,162.045,2518.06,161.538,2518.06,161.538 M2500.699,155.084h-14.064v-6.3h14.064c1.735,0,3.148,1.41,3.148,3.15
			C2503.849,153.671,2502.437,155.084,2500.699,155.084z"/>
		<path id="path3098" fill="#FFFFFF" d="M2640.054,57.922l-53.813,68.771c7.438,20.049,26.357,33.351,47.973,33.351
			c28.248,0,51.229-22.985,51.229-51.229C2685.443,82.664,2665.724,60.831,2640.054,57.922z"/>
		<path id="path3102" fill="#EC671D" d="M2729.036,36.029l-50.771,145.722h9.477l50.77-145.722H2729.036z"/>
		<path id="path3106" fill="#FFFFFF" d="M2654.111,72.995c4.172,4.735,7.511,10.171,9.827,16.028
			c3.918-1.435,7.729-3.158,11.438-5.156c-4.043-6.626-9.625-12.225-16.299-16.26C2657.626,69.626,2655.963,71.414,2654.111,72.995z
			"/>
		<path id="path3110" fill="#FFFFFF" d="M2667.716,107.988h14.618c-0.146-8.199-2.351-15.959-6.132-22.71
			c-3.76,2.032-7.666,3.815-11.671,5.285C2666.521,96.068,2667.63,101.96,2667.716,107.988z"/>
		<path id="path3114" fill="#FFFFFF" d="M2654.166,144.728c1.8,1.537,3.459,3.321,4.864,5.293
			c6.677-4.024,12.302-9.638,16.361-16.307c-3.655-1.98-7.441-3.684-11.325-5.127
			C2661.75,134.534,2658.381,139.976,2654.166,144.728z"/>
		<path id="path3118" fill="#FFFFFF" d="M2605.399,126.503c4.057-1.418,8.217-2.535,12.467-3.335
			c-0.795-4.431-1.221-8.942-1.255-13.536"/>
		<path id="path3122" fill="#FFFFFF" d="M2653.083,145.952c-4.078,4.297-8.887,7.933-14.297,10.756
			c6.781-0.637,13.141-2.699,18.839-5.865C2656.274,149.021,2654.746,147.399,2653.083,145.952z"/>
		<path id="path3126" fill="#FFFFFF" d="M2614.274,144.743c-4.207-4.739-7.575-10.17-9.884-16.131
			c-3.905,1.443-7.704,3.149-11.355,5.135c4.082,6.771,9.72,12.338,16.357,16.324
			C2610.82,148.083,2612.466,146.304,2614.274,144.743z"/>
		<path id="path3130" fill="#FFFFFF" d="M2610.821,150.879c5.697,3.149,12.07,5.183,18.809,5.813
			c-5.389-2.826-10.205-6.44-14.24-10.738C2613.709,147.415,2612.167,149.053,2610.821,150.879z"/>
		<path id="path3134" fill="#FFFFFF" d="M2653.017,71.778c1.705-1.474,3.262-3.124,4.623-4.997
			c-5.677-3.18-12.069-5.238-18.92-5.861C2644.138,63.738,2648.938,67.429,2653.017,71.778z"/>
		<path id="path3138" fill="#FFFFFF" d="M2633.381,80.267c-3.148-0.086-6.209-0.658-9.17-1.698
			c-1.941,4.71-3.397,9.557-4.403,14.516c4.469,0.748,9.007,1.177,13.573,1.22V80.267z"/>
		<path id="path3142" fill="#FFFFFF" d="M2645.156,76.545c2.351-0.937,4.551-2.205,6.569-3.73
			c-4.186-4.435-9.147-8.169-14.761-10.97l-0.061,0.103C2640.176,66.559,2642.93,71.44,2645.156,76.545z"/>
		<path id="path3146" fill="#FFFFFF" d="M2633.381,137.358v-14.082c-4.571,0.047-9.118,0.478-13.596,1.238
			c0.997,4.979,2.458,9.854,4.388,14.522C2627.104,138.028,2630.201,137.448,2633.381,137.358z"/>
		<path id="path3150" fill="#FFFFFF" d="M2624.812,140.556c2.278,5.238,5.137,10.219,8.568,14.928v-16.475
			C2630.415,139.087,2627.536,139.628,2624.812,140.556z"/>
		<path id="path3154" fill="#FFFFFF" d="M2635.019,155.524c3.459-4.728,6.304-9.732,8.603-14.98
			c-2.729-0.945-5.634-1.461-8.603-1.542V155.524z"/>
		<path id="path3158" fill="#FFFFFF" d="M2645.819,139.599c2.525,1.023,4.902,2.407,7.081,4.096c4.1-4.605,7.36-9.899,9.612-15.676
			c-3.996-1.365-8.088-2.475-12.237-3.262C2649.271,129.862,2647.767,134.814,2645.819,139.599z"/>
		<path id="path3162" fill="#FFFFFF" d="M2636.771,155.927c5.736-2.822,10.781-6.561,15.015-11.025
			c-2.036-1.555-4.263-2.832-6.608-3.795C2642.912,146.276,2640.11,151.226,2636.771,155.927z"/>
		<path id="path3166" fill="#FFFFFF" d="M2648.925,94.698c-4.572,0.786-9.226,1.211-13.904,1.263v12.027h15.146
			C2650.128,103.482,2649.707,99.06,2648.925,94.698z"/>
		<path id="path3170" fill="#FFFFFF" d="M2650.569,123.137c4.254,0.808,8.408,1.925,12.486,3.326
			c1.888-5.286,2.932-10.953,3.021-16.831h-14.266C2651.769,114.216,2651.354,118.716,2650.569,123.137z"/>
		<path id="path3174" fill="#FFFFFF" d="M2650.166,109.633h-15.146v12.002c4.691,0.034,9.342,0.474,13.931,1.251
			C2649.72,118.545,2650.128,114.136,2650.166,109.633z"/>
		<path id="path3178" fill="#FFFFFF" d="M2635.019,137.351c3.191,0.09,6.304,0.652,9.252,1.676
			c1.912-4.688,3.395-9.549,4.387-14.528c-4.499-0.752-9.063-1.188-13.639-1.222V137.351z"/>
		<path id="path3182" fill="#FFFFFF" d="M2633.381,121.644v-12.011h-15.125c0.052,4.509,0.464,8.929,1.229,13.261
			C2624.053,122.112,2628.697,121.687,2633.381,121.644z"/>
		<path id="path3186" fill="#FFFFFF" d="M2622.639,139.628c-1.973-4.786-3.468-9.74-4.474-14.85
			c-4.15,0.785-8.246,1.891-12.242,3.27c2.265,5.758,5.514,11.053,9.634,15.658C2617.731,142.026,2620.086,140.648,2622.639,139.628
			z"/>
		<path id="path3190" fill="#FFFFFF" d="M2616.659,144.92c4.24,4.452,9.269,8.183,15.001,10.996
			c-3.335-4.667-6.149-9.612-8.39-14.79C2620.917,142.097,2618.7,143.373,2616.659,144.92z"/>
		<path id="path3194" fill="#FFFFFF" d="M2651.812,107.988h14.267c-0.09-5.832-1.164-11.521-3.085-16.857
			c-4.052,1.396-8.203,2.518-12.444,3.309C2651.339,98.874,2651.76,103.42,2651.812,107.988z"/>
		<path id="path3198" fill="#FFFFFF" d="M2662.411,89.591c-2.266-5.698-5.519-10.958-9.569-15.568
			c-2.161,1.659-4.538,3.017-7.043,4.035c1.951,4.761,3.45,9.686,4.46,14.769C2654.371,92.041,2658.44,90.975,2662.411,89.591z"/>
		<path id="path3202" fill="#FFFFFF" d="M2633.381,95.961c-4.666-0.052-9.299-0.477-13.866-1.242
			c-0.776,4.349-1.207,8.762-1.259,13.269h15.125V95.961z"/>
		<path id="path3206" fill="#FFFFFF" d="M2644.271,78.635c-2.951,1.01-6.059,1.573-9.252,1.654V94.31
			c4.576-0.047,9.141-0.477,13.617-1.225C2647.635,88.127,2646.179,83.289,2644.271,78.635z"/>
		<path id="path3210" fill="#FFFFFF" d="M2664.598,127.044c3.983,1.461,7.868,3.227,11.603,5.246
			c3.785-6.729,5.99-14.434,6.137-22.658h-14.619C2667.631,115.7,2666.54,121.565,2664.598,127.044z"/>
		<path id="path3218" fill="#038341" d="M2636.685,59.856c0,0,0.009,0.013,0.021,0.017"/>
		<path id="path3222" fill="#038341" d="M2640.028,57.922l16.341-20.893L2640.028,57.922h0.024
			c25.666,2.909,45.39,24.742,45.39,50.89c0,28.244-22.979,51.23-51.232,51.23c-21.61,0-40.53-13.301-47.973-33.35v-0.01
			l-43.135,55.088h129.951l50.762-145.726h-69.806l-114.014,145.726h3.106l43.134-55.088"/>
		<path id="path3226" fill="#EC671D" d="M2640.054,57.922l-1.144,1.448l-0.906,1.16l-0.224,0.301l-0.816,1.014
			c5.616,2.801,10.575,6.536,14.765,10.97c-2.023,1.525-4.225,2.793-6.569,3.73c-2.227-5.105-4.984-9.986-8.25-14.597l-1.063,1.336
			c3.063,4.378,5.663,9.021,7.756,13.845c-2.729,0.924-5.611,1.444-8.585,1.504v-14.3l-1.638,2.101v12.169
			c-2.861-0.064-5.659-0.571-8.366-1.491c-0.039-0.021-1.058,1.375-1.058,1.375l-2.827,3.605c-1.229,3.506-2.204,7.09-2.935,10.734
			c-1.573-0.296-3.125-0.653-4.658-1.036l-1.121,1.436c1.82,0.459,3.626,0.863,5.474,1.211c-0.803,4.435-1.229,8.977-1.274,13.549
			h-14.258l0.056-1.985l-2.836,3.63h1.139c0.086,6.076,1.177,11.942,3.124,17.427c-3.982,1.485-7.864,3.229-11.604,5.26
			c-1.498-2.678-2.754-5.519-3.732-8.525l-1.135,1.456l-1.126,1.444c7.438,20.049,26.357,33.35,47.973,33.35
			c28.248,0,51.229-22.986,51.229-51.23C2685.443,82.664,2665.724,60.831,2640.054,57.922 M2682.336,107.987h-14.618
			c-0.086-6.029-1.199-11.92-3.188-17.42c4.009-1.474,7.91-3.253,11.671-5.29C2679.985,92.032,2682.19,99.788,2682.336,107.987
			 M2618.259,109.632h15.121v12.012c-4.684,0.043-9.329,0.469-13.896,1.25C2618.719,118.562,2618.306,114.14,2618.259,109.632
			 M2635.019,95.963c4.679-0.051,9.332-0.481,13.903-1.263c0.782,4.357,1.208,8.783,1.247,13.287h-15.15V95.963 M2650.169,109.632
			c-0.039,4.504-0.451,8.912-1.221,13.253c-4.585-0.772-9.234-1.216-13.932-1.251v-12.002H2650.169 M2619.784,124.513
			c4.478-0.76,9.022-1.186,13.596-1.236v14.08c-3.18,0.097-6.278,0.676-9.204,1.682
			C2622.242,134.366,2620.785,129.493,2619.784,124.513 M2622.638,139.63c-2.549,1.02-4.902,2.395-7.082,4.078
			c-4.121-4.605-7.369-9.904-9.63-15.662c3.992-1.375,8.087-2.484,12.238-3.266C2619.174,129.89,2620.665,134.839,2622.638,139.63
			 M2635.019,123.276c4.58,0.033,9.14,0.468,13.639,1.22c-0.993,4.979-2.477,9.841-4.389,14.528c-2.946-1.02-6.059-1.586-9.25-1.676
			V123.276 M2650.276,124.759c4.149,0.785,8.24,1.895,12.236,3.262c-2.251,5.774-5.518,11.068-9.611,15.676
			c-2.184-1.692-4.556-3.072-7.082-4.096C2647.767,134.814,2649.271,129.862,2650.276,124.759 M2650.568,123.138
			c0.786-4.426,1.202-8.92,1.241-13.506h14.271c-0.094,5.875-1.139,11.547-3.021,16.832
			C2658.978,125.064,2654.826,123.942,2650.568,123.138 M2651.81,107.987c-0.047-4.568-0.473-9.114-1.263-13.549
			c4.245-0.791,8.396-1.908,12.444-3.304c1.921,5.337,2.995,11.022,3.089,16.853H2651.81 M2675.379,83.867
			c-3.712,1.999-7.521,3.722-11.438,5.157c-2.315-5.857-5.658-11.297-9.83-16.028c1.852-1.581,3.519-3.369,4.972-5.388
			C2665.75,71.638,2671.331,77.241,2675.379,83.867 M2638.717,60.917c6.851,0.627,13.243,2.681,18.925,5.865
			c-1.366,1.874-2.918,3.523-4.623,4.998C2648.937,67.431,2644.136,63.74,2638.717,60.917 M2652.846,74.023
			c4.048,4.611,7.302,9.87,9.565,15.568c-3.971,1.384-8.04,2.45-12.152,3.236c-1.006-5.083-2.51-10.008-4.46-14.765
			C2648.304,77.04,2650.68,75.682,2652.846,74.023 M2644.269,78.634c1.912,4.653,3.369,9.492,4.366,14.455
			c-4.478,0.743-9.037,1.173-13.616,1.225V80.288C2638.21,80.211,2641.321,79.648,2644.269,78.634 M2624.21,78.573
			c2.961,1.036,6.021,1.611,9.17,1.693v14.039c-4.566-0.043-9.105-0.473-13.574-1.216
			C2620.812,88.126,2622.269,83.279,2624.21,78.573 M2619.519,94.717c4.563,0.765,9.194,1.195,13.861,1.246v12.023h-15.121
			C2618.306,103.483,2618.735,99.066,2619.519,94.717 M2602.354,109.632h14.259c0.034,4.594,0.455,9.105,1.254,13.537
			c-4.249,0.799-8.409,1.916-12.466,3.334C2603.498,121.183,2602.429,115.515,2602.354,109.632 M2604.392,128.612
			c2.309,5.961,5.674,11.396,9.885,16.131c-1.811,1.561-3.455,3.34-4.883,5.328c-6.639-3.986-12.275-9.553-16.357-16.324
			C2596.688,131.763,2600.486,130.058,2604.392,128.612 M2610.82,150.88c1.35-1.826,2.888-3.463,4.566-4.924
			c4.035,4.292,8.854,7.91,14.241,10.732C2622.892,156.062,2616.519,154.03,2610.82,150.88 M2616.66,144.92
			c2.037-1.547,4.258-2.823,6.612-3.794c2.234,5.178,5.054,10.123,8.389,14.79C2625.929,153.103,2620.901,149.372,2616.66,144.92
			 M2633.38,155.482c-3.434-4.709-6.291-9.688-8.568-14.928c2.726-0.924,5.604-1.465,8.568-1.547V155.482 M2635.019,139.003
			c2.973,0.082,5.873,0.598,8.603,1.543c-2.299,5.246-5.144,10.252-8.603,14.979V139.003 M2645.176,141.105
			c2.347,0.967,4.571,2.242,6.608,3.795c-4.232,4.465-9.277,8.203-15.014,11.029
			C2640.113,151.228,2642.911,146.278,2645.176,141.105 M2638.785,156.706c5.409-2.822,10.219-6.458,14.297-10.756
			c1.663,1.449,3.192,3.068,4.542,4.891C2651.931,154.009,2645.565,156.075,2638.785,156.706 M2659.029,150.024
			c-1.405-1.974-3.064-3.756-4.864-5.299c4.22-4.752,7.584-10.191,9.9-16.14c3.884,1.442,7.67,3.146,11.33,5.127
			C2671.331,140.382,2665.707,145.994,2659.029,150.024 M2676.2,132.291c-3.734-2.021-7.619-3.786-11.604-5.247
			c1.942-5.479,3.034-11.344,3.12-17.412h14.618C2682.19,117.857,2679.985,125.562,2676.2,132.291z"/>
		<path id="path3230" fill="#FFFFFF" d="M2639.223,120.271l12.113,5.578l-5.729-12.281l15.611-3.832v-1.843l-15.611-3.902
			l5.947-12.526l-12.393,5.818l-3.885-22.22h-2.175l-3.812,22.203l-12.367-5.801l5.831,12.573l-15.577,3.854v1.822l15.577,3.772
			l-5.655,12.393l12.17-5.529l3.79,22.211l2.14-0.021L2639.223,120.271z"/>
		<path id="path3234" fill="#038341" d="M2634.254,76.293l4.039,22.701l10.867-5.152l-5.136,10.875l16.309,4.083l-16.309,4.053
			l4.963,10.644l-10.694-4.868l-4.144,22.479l-4.005-22.479l-10.669,4.881l4.916-10.656l-16.27-4.052l16.27-4.083l-5.079-10.875
			l10.832,5.109L2634.254,76.293z"/>
	</g>
</g>
</svg>
